<svg width="128" height="128" viewBox="0 0 128 128" fill="none" xmlns="http://www.w3.org/2000/svg">
<rect x="2.25" y="2.25" width="123.5" height="123.5" rx="42.75" stroke="white" stroke-width="4.5"/>
<path d="M50.88 88L59.2 46.72H65.36L63.6 54.96H64C64.5333 53.9467 65.1733 52.96 65.92 52C66.6667 50.9867 67.52 50.1067 68.48 49.36C69.4933 48.56 70.64 47.92 71.92 47.44C73.2 46.96 74.6933 46.72 76.4 46.72H78.96L77.76 53.04H74.88C72.96 53.04 71.2533 53.3333 69.76 53.92C68.32 54.4533 67.0667 55.2 66 56.16C64.9333 57.12 64.0533 58.24 63.36 59.52C62.72 60.7467 62.2667 62.0533 62 63.44L57.04 88H50.88Z" fill="white"/>
</svg>
