<svg width="128" height="128" viewBox="0 0 128 128" fill="none" xmlns="http://www.w3.org/2000/svg">
<rect x="2.25" y="2.25" width="123.5" height="123.5" rx="42.75" stroke="white" stroke-width="4.5"/>
<path d="M61.52 90C59.8867 90 58.65 89.6033 57.81 88.81C57.0167 87.97 56.62 86.8967 56.62 85.59C56.62 85.17 56.69 84.61 56.83 83.91L61.94 58.64H56.62L57.53 53.88H60.26C61.5667 53.88 62.43 53.6233 62.85 53.11C63.3167 52.5967 63.6667 51.71 63.9 50.45L65.23 43.87H70.2L68.24 53.88H75.87L74.96 58.64H67.33L61.94 85.24H69.01L68.1 90H61.52Z" fill="white"/>
</svg>
