<svg width="512" height="512" viewBox="0 0 512 512" fill="none" xmlns="http://www.w3.org/2000/svg">
<g clip-path="url(#clip0_1_28)">
<path d="M332 9H180C85.5593 9 9 85.5593 9 180V332C9 426.441 85.5593 503 180 503H332C426.441 503 503 426.441 503 332V180C503 85.5593 426.441 9 332 9Z" stroke="#252525" stroke-width="18"/>
<path d="M246.08 360C239.547 360 234.6 358.413 231.24 355.24C228.067 351.88 226.48 347.587 226.48 342.36C226.48 340.68 226.76 338.44 227.32 335.64L247.76 234.56H226.48L230.12 215.52H241.04C246.267 215.52 249.72 214.493 251.4 212.44C253.267 210.387 254.667 206.84 255.6 201.8L260.92 175.48H280.8L272.96 215.52H303.48L299.84 234.56H269.32L247.76 340.96H276.04L272.4 360H246.08Z" fill="#252525"/>
</g>
<defs>
<clipPath id="clip0_1_28">
<rect width="512" height="512" fill="white"/>
</clipPath>
</defs>
</svg>
