<svg width="512" height="512" viewBox="0 0 512 512" fill="none" xmlns="http://www.w3.org/2000/svg">
<path d="M397 243H114C107.373 243 102 248.373 102 255C102 261.627 107.373 267 114 267H397C403.627 267 409 261.627 409 255C409 248.373 403.627 243 397 243Z" fill="#252525"/>
<path d="M397 135H114C107.373 135 102 140.373 102 147C102 153.627 107.373 159 114 159H397C403.627 159 409 153.627 409 147C409 140.373 403.627 135 397 135Z" fill="#252525"/>
<path d="M397 351H114C107.373 351 102 356.373 102 363C102 369.627 107.373 375 114 375H397C403.627 375 409 369.627 409 363C409 356.373 403.627 351 397 351Z" fill="#252525"/>
</svg>
